# xmcd
#
# Track frame offsets: 
#        150
#        9630
#        25665
#        38812
#        55412
#        64787
#        80627
#        106587
#        118927
#        134330
#
# Disc length: 2032 seconds
#
# Revision: 20
# Processed by: cddbd v1.5.2PL0 Copyright (c) Steve Scherf et al.
# Submitted via: ExactAudioCopyFreeDBPlugin 1.0
#
DISCID=8007ee0a
DTITLE=Blues Brothers - Made In America
DYEAR=1980
DGENRE=Blues
TTITLE0=Soul Finger
TTITLE1=Who's Making Love?
TTITLE2=Do You Love Me
TTITLE3=Guilty
TTITLE4=Perry Mason Theme
TTITLE5=Riot In Cell Block Number Nine
TTITLE6=Green Onions
TTITLE7=I Ain't Got You
TTITLE8=From The Bottom
TTITLE9=Going Back To Miami
EXTD=
EXTT0=
EXTT1=
EXTT2=
EXTT3=
EXTT4=
EXTT5=
EXTT6=
EXTT7=
EXTT8=
EXTT9=
PLAYORDER=
